<svg height="300px" width="300px" fill="#000000" xmlns="http://www.w3.org/2000/svg" xmlns:xlink="http://www.w3.org/1999/xlink" version="1.1" x="0px" y="0px" viewBox="-55 147 500 500" style="enable-background:new -55 147 500 500;" xml:space="preserve"><g><path d="M112.5,424.3c12.8,4,26.2,6,39.6,6c4.1,0,7.5-3.4,7.5-7.5s-3.4-7.5-7.5-7.5c-11.9,0-23.8-1.8-35.2-5.4   c-14.6-4.5-30.1-2.1-42.6,6.8c-12.2,8.7-19.5,22.3-19.9,37.2c0,0.5,0,1,0,1.5c0,4.1,3.4,7.5,7.5,7.5s7.5-3.4,7.5-7.5   c0-0.3,0-0.7,0-1c0.3-10.2,5.3-19.4,13.7-25.4C91.7,422.8,102.5,421.1,112.5,424.3z"/><path d="M110.9,522.8c0,4.1,3.4,7.5,7.5,7.5h154.9c16.3,0,29.6-13.3,29.6-29.6v-27.1c0-4.1-3.4-7.5-7.5-7.5s-7.5,3.4-7.5,7.5v27.1   c0,8.1-6.6,14.6-14.6,14.6H118.4C114.3,515.3,110.9,518.7,110.9,522.8z"/><path d="M373.6,582.9h-79.4c9.2-2.4,18-6.5,26.1-12.3c20-14.3,31.9-36.4,32.6-60.8c0-0.8,0-58.2,0-59.1l0,0   c-0.7-24.4-12.6-46.5-32.6-60.8c-5.7-4.1-11.9-7.3-18.3-9.8c-4.7-23.8-25.7-41.7-50.8-41.7c-27.8,0-50.6,22.1-51.7,49.6   c-25.4,1.5-51-1.6-75.8-9.3c-23.9-7.4-49.3-3.4-69.7,11.2c-20,14.3-31.9,36.4-32.6,60.8c0,0.8,0,58.2,0,59.1   c0.7,24.4,12.6,46.5,32.6,60.8c8,5.7,16.9,9.8,26.1,12.3H0.6c-4.1,0-7.5,3.4-7.5,7.5s3.4,7.5,7.5,7.5h373c4.1,0,7.5-3.4,7.5-7.5   S377.7,582.9,373.6,582.9z M251.2,353.5c20.3,0,36.7,16.5,36.7,36.8c0,20.3-16.5,36.7-36.7,36.7c-20.3,0-36.8-16.5-36.8-36.8   C214.4,369.9,230.9,353.5,251.2,353.5z M36.4,509.5c0-1.6,0-56.8,0-58.3c0.6-19.6,10.2-37.5,26.3-49c11.1-7.9,24.1-12,37.3-12   c6.4,0,12.9,1,19.3,3c26.7,8.3,54.3,11.6,81.8,9.9c5.7,22.4,26,39,50.1,39c26.3,0,48.1-19.7,51.3-45.2c3.1,1.5,6.1,3.3,9,5.4   c16.1,11.5,25.7,29.4,26.3,49c0,2.3,0,56.7,0,58.3c-0.6,19.6-10.2,37.5-26.3,49c-16.6,11.8-37.2,15.1-56.5,9.1   c-44.4-13.8-91.3-13.8-135.7,0c-19.4,6-40,2.7-56.5-9.1C46.5,546.9,36.9,529,36.4,509.5z M123.7,581.9c41.5-12.9,85.3-12.9,126.8,0   c1.2,0.4,2.5,0.7,3.7,1.1H119.9C121.2,582.6,122.4,582.2,123.7,581.9z"/><path d="M176,358.8c22.9,0,41.5-18.6,41.5-41.5c0-22.9-18.6-41.5-41.5-41.5s-41.5,18.6-41.5,41.5   C134.5,340.2,153.1,358.8,176,358.8z M176,290.9c14.6,0,26.5,11.9,26.5,26.5s-11.9,26.5-26.5,26.5s-26.5-11.9-26.5-26.5   S161.4,290.9,176,290.9z"/><path d="M225.4,278c18.3,0,33.2-14.9,33.2-33.2s-14.9-33.2-33.2-33.2s-33.2,14.9-33.2,33.2S207.1,278,225.4,278z M225.4,226.6   c10.1,0,18.2,8.2,18.2,18.2s-8.2,18.2-18.2,18.2s-18.2-8.2-18.2-18.2S215.4,226.6,225.4,226.6z"/></g></svg>